<svg width="97" height="45" viewBox="0 0 97 45" fill="none" xmlns="http://www.w3.org/2000/svg">
<path d="M51.26 35L46.73 27.56V27.29C49.67 26.63 51.2 24.59 51.2 21.08V20.96C51.2 16.67 48.92 14.54 44.51 14.54H37.61V35H40.94V27.5H43.07L47.57 35H51.26ZM47.93 21.08C47.93 23.51 47.21 24.44 44.51 24.44H40.94V17.63H44.51C47.21 17.63 47.93 18.5 47.93 20.96V21.08ZM60.5009 35.3C64.2209 35.3 66.7409 33.02 66.7409 28.46V26.54C66.7409 21.98 64.2209 19.67 60.5009 19.67H60.3209C56.5709 19.67 54.0809 21.98 54.0809 26.54V28.46C54.0809 33.02 56.6009 35.3 60.3209 35.3H60.5009ZM60.3209 32.36C58.1909 32.36 57.3209 31.37 57.3209 28.46V26.54C57.3209 23.6 58.1909 22.64 60.3209 22.64H60.5009C62.6009 22.64 63.5009 23.6 63.5009 26.54V28.46C63.5009 31.37 62.6009 32.36 60.5009 32.36H60.3209ZM76.4091 35.3C80.1291 35.3 82.6491 33.02 82.6491 28.46V26.54C82.6491 21.98 80.1291 19.67 76.4091 19.67H76.2291C72.4791 19.67 69.9891 21.98 69.9891 26.54V28.46C69.9891 33.02 72.5091 35.3 76.2291 35.3H76.4091ZM76.2291 32.36C74.0991 32.36 73.2291 31.37 73.2291 28.46V26.54C73.2291 23.6 74.0991 22.64 76.2291 22.64H76.4091C78.5091 22.64 79.4091 23.6 79.4091 26.54V28.46C79.4091 31.37 78.5091 32.36 76.4091 32.36H76.2291ZM91.8709 32.06C91.0909 32.06 90.9109 31.82 90.9109 31.1V22.94H94.8709V19.97H90.9109V16.31L87.6109 16.58V19.97H84.8809V22.94H87.6109V30.74C87.6109 33.23 89.1709 35 91.8709 35H94.9609V32.06H91.8709Z" fill="#F4EFF4"/>
<path d="M3.37317 11.3062L13.3215 16.9421L23.3104 11.3062L26.5826 13.1881L13.3215 20.5687L0.141479 13.1881L3.37317 11.3062Z" fill="#454447"/>
<path d="M13.3219 20.5687V35.5259L16.655 33.6636V22.333L26.583 16.9519V13.188L13.3219 20.5687Z" fill="#00F97C"/>
<path d="M13.3217 20.5687V35.5259L9.98858 33.6636V22.333L0.0605469 16.9519V13.188L13.3217 20.5687Z" fill="#111215"/>
</svg>
