<svg width="11" height="11" viewBox="0 0 11 11" fill="none" xmlns="http://www.w3.org/2000/svg">
<g clip-path="url(#clip0_1767_2253)">
<path d="M5.5 3.35156C5.07508 3.35156 4.6597 3.47757 4.30639 3.71364C3.95308 3.94971 3.67771 4.28525 3.5151 4.67783C3.35249 5.0704 3.30995 5.50238 3.39285 5.91914C3.47574 6.3359 3.68036 6.71871 3.98083 7.01918C4.28129 7.31964 4.66411 7.52426 5.08086 7.60716C5.49762 7.69005 5.9296 7.64751 6.32217 7.4849C6.71475 7.32229 7.05029 7.04692 7.28636 6.69361C7.52244 6.3403 7.64844 5.92492 7.64844 5.5C7.64844 4.9302 7.42209 4.38374 7.01918 3.98083C6.61627 3.57792 6.0698 3.35156 5.5 3.35156ZM5.5 7.13281C5.17706 7.13281 4.86137 7.03705 4.59286 6.85763C4.32434 6.67822 4.11506 6.42321 3.99148 6.12485C3.8679 5.82649 3.83556 5.49819 3.89856 5.18145C3.96156 4.86472 4.11708 4.57378 4.34543 4.34543C4.57378 4.11707 4.86472 3.96156 5.18146 3.89856C5.49819 3.83556 5.82649 3.86789 6.12485 3.99148C6.42321 4.11506 6.67822 4.32434 6.85763 4.59286C7.03705 4.86137 7.13281 5.17706 7.13281 5.5C7.13281 5.93305 6.96079 6.34836 6.65457 6.65457C6.34836 6.96078 5.93305 7.13281 5.5 7.13281Z" fill="#FDFDFD"/>
<path d="M10.3984 4.125H9.63102C9.61315 4.12487 9.59576 4.11917 9.58128 4.10869C9.56681 4.09822 9.55595 4.08349 9.55023 4.06656C9.50029 3.92471 9.44292 3.78559 9.37836 3.64977C9.3703 3.63374 9.36746 3.61559 9.37023 3.59787C9.37301 3.58015 9.38126 3.56374 9.39383 3.55094L9.93609 3.00781C9.99196 2.95195 10.0363 2.88563 10.0665 2.81264C10.0967 2.73966 10.1123 2.66143 10.1123 2.58242C10.1123 2.50342 10.0967 2.42519 10.0665 2.3522C10.0363 2.27921 9.99196 2.21289 9.93609 2.15703L8.84211 1.06391C8.78625 1.00804 8.71993 0.963723 8.64694 0.933488C8.57395 0.903253 8.49572 0.887691 8.41672 0.887691C8.33772 0.887691 8.25949 0.903253 8.1865 0.933488C8.11351 0.963723 8.04719 1.00804 7.99133 1.06391L7.44906 1.60617C7.43626 1.61874 7.41985 1.62699 7.40213 1.62977C7.38441 1.63254 7.36626 1.6297 7.35023 1.62164C7.21442 1.55706 7.0753 1.49969 6.93344 1.44977C6.91651 1.44405 6.90178 1.43319 6.89131 1.41872C6.88083 1.40424 6.87513 1.38685 6.875 1.36898V0.601562C6.875 0.442018 6.81162 0.289008 6.69881 0.176194C6.58599 0.0633787 6.43298 0 6.27344 0H4.72656C4.56702 0 4.41401 0.0633787 4.30119 0.176194C4.18838 0.289008 4.125 0.442018 4.125 0.601562V1.36898C4.12487 1.38685 4.11917 1.40424 4.10869 1.41872C4.09822 1.43319 4.08349 1.44405 4.06656 1.44977C3.92471 1.49971 3.78559 1.55708 3.64977 1.62164C3.63374 1.6297 3.61559 1.63254 3.59787 1.62977C3.58015 1.62699 3.56374 1.61874 3.55094 1.60617L3.00781 1.06391C2.95195 1.00804 2.88563 0.963723 2.81264 0.933488C2.73966 0.903253 2.66143 0.887691 2.58242 0.887691C2.50342 0.887691 2.42519 0.903253 2.3522 0.933488C2.27921 0.963723 2.21289 1.00804 2.15703 1.06391L1.06391 2.15789C1.00804 2.21375 0.963723 2.28007 0.933488 2.35306C0.903253 2.42605 0.887691 2.50428 0.887691 2.58328C0.887691 2.66228 0.903253 2.74051 0.933488 2.8135C0.963723 2.88649 1.00804 2.95281 1.06391 3.00867L1.60617 3.55094C1.61874 3.56374 1.62699 3.58015 1.62977 3.59787C1.63254 3.61559 1.6297 3.63374 1.62164 3.64977C1.55706 3.78558 1.49969 3.9247 1.44977 4.06656C1.44405 4.08349 1.43319 4.09822 1.41872 4.10869C1.40424 4.11917 1.38685 4.12487 1.36898 4.125H0.601562C0.442018 4.125 0.289008 4.18838 0.176194 4.30119C0.0633787 4.41401 0 4.56702 0 4.72656L0 6.27344C0 6.43298 0.0633787 6.58599 0.176194 6.69881C0.289008 6.81162 0.442018 6.875 0.601562 6.875H1.36898C1.38685 6.87513 1.40424 6.88083 1.41872 6.89131C1.43319 6.90178 1.44405 6.91651 1.44977 6.93344C1.49971 7.07529 1.55708 7.21441 1.62164 7.35023C1.6297 7.36626 1.63254 7.38441 1.62977 7.40213C1.62699 7.41985 1.61874 7.43626 1.60617 7.44906L1.06391 7.99219C1.00804 8.04805 0.963723 8.11437 0.933488 8.18736C0.903253 8.26034 0.887691 8.33857 0.887691 8.41758C0.887691 8.49658 0.903253 8.57481 0.933488 8.6478C0.963723 8.72079 1.00804 8.78711 1.06391 8.84297L2.15789 9.93695C2.21375 9.99282 2.28007 10.0371 2.35306 10.0674C2.42605 10.0976 2.50428 10.1132 2.58328 10.1132C2.66228 10.1132 2.74051 10.0976 2.8135 10.0674C2.88649 10.0371 2.95281 9.99282 3.00867 9.93695L3.55094 9.39469C3.56374 9.38212 3.58015 9.37387 3.59787 9.37109C3.61559 9.36832 3.63374 9.37116 3.64977 9.37922C3.78558 9.4438 3.9247 9.50117 4.06656 9.55109C4.08349 9.55681 4.09822 9.56767 4.10869 9.58214C4.11917 9.59662 4.12487 9.61401 4.125 9.63188V10.3984C4.125 10.558 4.18838 10.711 4.30119 10.8238C4.41401 10.9366 4.56702 11 4.72656 11H6.27344C6.43298 11 6.58599 10.9366 6.69881 10.8238C6.81162 10.711 6.875 10.558 6.875 10.3984V9.63102C6.87513 9.61315 6.88083 9.59576 6.89131 9.58128C6.90178 9.56681 6.91651 9.55595 6.93344 9.55023C7.07529 9.50029 7.21441 9.44292 7.35023 9.37836C7.36626 9.3703 7.38441 9.36746 7.40213 9.37023C7.41985 9.37301 7.43626 9.38126 7.44906 9.39383L7.99219 9.93609C8.04805 9.99196 8.11437 10.0363 8.18736 10.0665C8.26034 10.0967 8.33857 10.1123 8.41758 10.1123C8.49658 10.1123 8.57481 10.0967 8.6478 10.0665C8.72079 10.0363 8.78711 9.99196 8.84297 9.93609L9.93695 8.84211C9.99282 8.78625 10.0371 8.71993 10.0674 8.64694C10.0976 8.57395 10.1132 8.49572 10.1132 8.41672C10.1132 8.33772 10.0976 8.25949 10.0674 8.1865C10.0371 8.11351 9.99282 8.04719 9.93695 7.99133L9.39469 7.44906C9.38212 7.43626 9.37387 7.41985 9.37109 7.40213C9.36832 7.38441 9.37116 7.36626 9.37922 7.35023C9.4438 7.21442 9.50117 7.0753 9.55109 6.93344C9.55681 6.91651 9.56767 6.90178 9.58214 6.89131C9.59662 6.88083 9.61401 6.87513 9.63188 6.875H10.3984C10.558 6.875 10.711 6.81162 10.8238 6.69881C10.9366 6.58599 11 6.43298 11 6.27344V4.72656C11 4.56702 10.9366 4.41401 10.8238 4.30119C10.711 4.18838 10.558 4.125 10.3984 4.125ZM10.4844 6.27344C10.4844 6.29623 10.4753 6.31809 10.4592 6.3342C10.4431 6.35032 10.4212 6.35938 10.3984 6.35938H9.63102C9.50637 6.35952 9.38484 6.39837 9.28324 6.47057C9.18163 6.54278 9.10496 6.64476 9.06383 6.76242C9.01986 6.88702 8.96937 7.00922 8.91258 7.12852C8.85813 7.24097 8.84004 7.36759 8.86083 7.49079C8.88162 7.61399 8.94025 7.72766 9.02859 7.81602L9.57086 8.35828C9.58687 8.37438 9.59585 8.39616 9.59585 8.41887C9.59585 8.44157 9.58687 8.46335 9.57086 8.47945L8.47773 9.57172C8.46163 9.58772 8.43985 9.59671 8.41715 9.59671C8.39445 9.59671 8.37266 9.58772 8.35656 9.57172L7.8143 9.02945C7.72594 8.94111 7.61227 8.88248 7.48907 8.86169C7.36587 8.8409 7.23925 8.85898 7.1268 8.91344C7.00722 8.97026 6.88473 9.02075 6.75984 9.06469C6.64234 9.10596 6.54054 9.1827 6.4685 9.28429C6.39646 9.38588 6.35773 9.50733 6.35766 9.63188V10.3984C6.35766 10.4212 6.3486 10.4431 6.33249 10.4592C6.31637 10.4753 6.29451 10.4844 6.27172 10.4844H4.72656C4.70377 10.4844 4.68191 10.4753 4.6658 10.4592C4.64968 10.4431 4.64062 10.4212 4.64062 10.3984V9.63102C4.64048 9.50637 4.60163 9.38484 4.52943 9.28324C4.45722 9.18163 4.35524 9.10496 4.23758 9.06383C4.11298 9.01986 3.99078 8.96937 3.87148 8.91258C3.75903 8.85813 3.63241 8.84004 3.50921 8.86083C3.38601 8.88162 3.27234 8.94025 3.18398 9.02859L2.64172 9.57086C2.62562 9.58687 2.60384 9.59585 2.58113 9.59585C2.55843 9.59585 2.53665 9.58687 2.52055 9.57086L1.42828 8.47773C1.41228 8.46163 1.40329 8.43985 1.40329 8.41715C1.40329 8.39445 1.41228 8.37266 1.42828 8.35656L1.97055 7.8143C2.05889 7.72594 2.11752 7.61227 2.13831 7.48907C2.1591 7.36587 2.14102 7.23925 2.08656 7.1268C2.02974 7.00722 1.97925 6.88473 1.93531 6.75984C1.8938 6.6428 1.81708 6.54147 1.71568 6.46977C1.61428 6.39807 1.49317 6.3595 1.36898 6.35938H0.601562C0.57877 6.35938 0.556912 6.35032 0.540796 6.3342C0.524679 6.31809 0.515625 6.29623 0.515625 6.27344V4.72656C0.515625 4.70377 0.524679 4.68191 0.540796 4.6658C0.556912 4.64968 0.57877 4.64062 0.601562 4.64062H1.36898C1.49363 4.64048 1.61516 4.60163 1.71676 4.52943C1.81837 4.45722 1.89504 4.35524 1.93617 4.23758C1.98014 4.11298 2.03063 3.99078 2.08742 3.87148C2.14187 3.75903 2.15996 3.63241 2.13917 3.50921C2.11838 3.38601 2.05975 3.27234 1.97141 3.18398L1.42914 2.64172C1.41313 2.62562 1.40415 2.60384 1.40415 2.58113C1.40415 2.55843 1.41313 2.53665 1.42914 2.52055L2.52227 1.42828C2.53837 1.41228 2.56015 1.40329 2.58285 1.40329C2.60556 1.40329 2.62734 1.41228 2.64344 1.42828L3.1857 1.97055C3.27406 2.05889 3.38773 2.11752 3.51093 2.13831C3.63413 2.1591 3.76075 2.14102 3.8732 2.08656C3.99278 2.02974 4.11527 1.97925 4.24016 1.93531C4.3572 1.8938 4.45853 1.81708 4.53023 1.71568C4.60193 1.61428 4.6405 1.49317 4.64062 1.36898V0.601562C4.64062 0.57877 4.64968 0.556912 4.6658 0.540796C4.68191 0.524679 4.70377 0.515625 4.72656 0.515625H6.27344C6.29623 0.515625 6.31809 0.524679 6.3342 0.540796C6.35032 0.556912 6.35938 0.57877 6.35938 0.601562V1.36898C6.35952 1.49363 6.39837 1.61516 6.47057 1.71676C6.54278 1.81837 6.64476 1.89504 6.76242 1.93617C6.88702 1.98014 7.00922 2.03063 7.12852 2.08742C7.24097 2.14187 7.36759 2.15996 7.49079 2.13917C7.61399 2.11838 7.72766 2.05975 7.81602 1.97141L8.35828 1.42914C8.37438 1.41313 8.39616 1.40415 8.41887 1.40415C8.44157 1.40415 8.46335 1.41313 8.47945 1.42914L9.57344 2.52313C9.58944 2.53923 9.59843 2.56101 9.59843 2.58371C9.59843 2.60641 9.58944 2.6282 9.57344 2.6443L9.03117 3.18656C8.94283 3.27492 8.8842 3.38859 8.86341 3.51179C8.84262 3.63499 8.8607 3.76161 8.91516 3.87406C8.97198 3.99364 9.02247 4.11613 9.06641 4.24102C9.10768 4.35852 9.18441 4.46032 9.28601 4.53235C9.3876 4.60439 9.50905 4.64313 9.63359 4.6432H10.3984C10.4212 4.6432 10.4431 4.65226 10.4592 4.66837C10.4753 4.68449 10.4844 4.70635 10.4844 4.72914V6.27344Z" fill="#FDFDFD"/>
</g>
<defs>
<clipPath id="clip0_1767_2253">
<rect width="11" height="11" fill="white"/>
</clipPath>
</defs>
</svg>
