<svg width="17" height="16" viewBox="0 0 17 16" fill="none" xmlns="http://www.w3.org/2000/svg">
<path d="M3.41839 8.65606C3.04817 8.65606 2.74805 8.95452 2.74805 9.32272C2.74805 9.56099 2.87373 9.77006 3.06275 9.88792L4.86437 11.6797C5.12615 11.9401 5.55059 11.9401 5.81237 11.6797C6.07416 11.4193 6.07416 10.9972 5.81237 10.7369L5.06077 9.98939H10.1218C10.492 9.98939 10.7922 9.69092 10.7922 9.32272C10.7922 8.95452 10.492 8.65606 10.1218 8.65606H3.45153C3.44542 8.65599 3.43931 8.65599 3.43319 8.65606H3.41839Z" fill="#72F589"/>
<path d="M12.8131 7.34389C13.1833 7.34389 13.4834 7.04543 13.4834 6.67723C13.4834 6.43896 13.3578 6.22989 13.1688 6.11201L11.3672 4.32026C11.1053 4.05991 10.6809 4.05991 10.4191 4.32026C10.1573 4.58061 10.1573 5.00272 10.4191 5.26307L11.1708 6.01055H6.10973C5.73951 6.01055 5.43939 6.30903 5.43939 6.67723C5.43939 7.04543 5.73951 7.34389 6.10973 7.34389H12.78C12.7861 7.34396 12.7922 7.34396 12.7983 7.34389H12.8131Z" fill="#72F589"/>
</svg>
